<svg width="108" height="136" viewBox="0 0 108 136" fill="none" xmlns="http://www.w3.org/2000/svg">
<g clip-path="url(#clip0_99_3499)">
<path d="M0 41.4983C0 41.3289 0.109163 41.2197 0.223783 41.165C2.66903 40.8318 3.05655 36.5547 3.05655 31.8296L3.11113 4.94317C2.94193 1.55642 1.71931 1.38708 0.835094 1.38708C0.556729 1.38708 0.392985 1.16312 0.392985 0.829904V0.551316C0.392985 0.218103 0.556729 -0.00585938 0.835094 -0.00585938H7.16107C7.49401 -0.00585938 7.82696 0.218103 7.93612 0.660566L19.3163 31.4363L29.4193 0.835366C29.5885 0.392904 29.8614 0.114316 30.1944 0.114316L34.5227 0.00506564H37.1317C37.3554 0.00506564 37.4646 0.174403 37.4646 0.392904V1.0047C37.4646 1.22867 37.3554 1.39254 37.2408 1.39254C36.4057 1.50179 34.741 1.2232 34.741 5.05788V36.3908C34.741 40.5041 35.7944 40.9465 37.2408 41.1705C37.41 41.1705 37.4646 41.3399 37.4646 41.5037V42.2248C37.4646 42.4487 37.41 42.558 37.2408 42.558H27.6946C27.5854 42.558 27.4708 42.4487 27.4708 42.2248V41.5037C27.4708 41.3344 27.5799 41.1705 27.6946 41.1705C29.0809 40.9465 30.0798 40.3347 30.0798 36.6694V5.11251L18.312 41.3344C18.1428 41.7222 17.9791 41.7222 17.8099 41.3344L5.10881 7.16641V31.775C5.10881 36.5547 5.38717 40.8865 7.99616 41.165C8.16536 41.2197 8.27452 41.3344 8.27452 41.4983V42.2193C8.27452 42.4433 8.16536 42.5525 7.99616 42.5525H0.223783C0.114621 42.5525 0 42.4433 0 42.2193V41.4983Z" fill="#171616"/>
<path d="M55.1052 42.5527C52.6054 42.722 51.6611 39.9962 51.4428 38.0516C49.8872 40.4387 47.3328 42.9405 43.6704 42.7166C40.2864 42.6073 37.6174 39.3844 38.1195 34.8287C39.0638 25.9958 47.8896 30.2183 51.0553 21.9973C51.2791 21.4401 51.3336 21.2762 51.3336 20.6098C51.3336 18.7198 51.7757 13.4976 47.2237 13.8855C45.7227 13.9401 43.1737 15.3876 43.1737 18.2172C43.1737 19.6593 44.0034 20.2165 44.118 21.6641C44.2872 23.2755 43.3975 24.663 42.0112 25.2201C41.6782 25.3895 41.3453 25.4441 41.0669 25.4441C39.5113 25.4441 38.7363 23.6087 38.7363 21.2762C38.7363 14.4973 43.8451 12.1101 48.228 12.2194C53.7243 12.3286 56.0549 16.1633 56.0549 22.9423C56.0549 27.1102 55.8912 31.3327 55.8912 35.5552C55.8912 36.391 55.9458 38.4995 56.9992 38.2755C58.3855 38.3302 58.5547 35.9977 58.5547 34.6102C58.5547 34.3316 58.6639 34.1677 58.8877 34.1677L59.3298 34.2224C59.5536 34.2224 59.7173 34.4463 59.7173 34.7249C59.5481 39.2806 58.1618 42.3342 55.1107 42.5581L55.1052 42.5527ZM47.2237 39.663C49.0576 39.1058 50.2202 37.4944 51.219 36.1615V32.6601C51.219 29.6065 51.4428 27.0501 51.4974 23.9911C49.7781 28.7708 42.95 29.6557 42.6716 34.9926C42.4478 38.7125 45.2806 40.2694 47.2237 39.6576V39.663Z" fill="#171616"/>
<path d="M59.1328 41.4988C59.1328 41.2202 59.302 40.9962 59.5203 40.9962C60.41 40.9416 62.1839 41.4387 62.0747 36.3859C62.0747 33.7748 62.1839 19.1626 61.7418 17.8297C61.4089 16.8301 60.7975 16.8847 60.1317 16.8847C59.9079 16.8847 59.7987 16.7154 59.7987 16.4423L59.7441 15.6065C59.7441 15.3825 59.8533 15.164 60.0771 15.0493L66.3485 12.4383C66.5722 12.329 66.6814 12.4383 66.6814 12.7168V17.9936C67.5711 15.6611 70.0654 12.7715 73.0674 12.6622C78.4491 12.4929 80.7852 16.8847 80.7852 22.7187V36.2165C80.7852 38.773 80.6215 40.7723 83.0067 41.1055C83.2305 41.1055 83.3942 41.3294 83.3942 41.5479V42.1051C83.3942 42.3837 83.2305 42.5476 83.0067 42.5476L74.3446 42.493C74.1208 42.493 73.9571 42.3236 73.9571 42.1051L74.0117 41.4933C74.0117 41.2147 74.1208 41.0509 74.3446 41.0509C76.4569 40.8815 76.1786 37.8826 76.1786 36.1619C76.1786 34.9383 76.124 33.8294 76.124 32.7151V22.8279C76.124 19.1626 74.8468 14.8254 71.8503 15.164C68.7446 15.4973 66.6869 21.5552 66.6869 24.0515V36.3313C66.6869 37.2763 66.6869 39.3848 66.9652 40.1659C67.3528 41.0563 68.3516 41.0017 68.8537 41.0017C69.0775 41.0563 69.1867 41.2803 69.1867 41.5589V42.116C69.1867 42.3946 69.0775 42.5585 68.8537 42.5585H59.5258C59.302 42.5585 59.1383 42.3892 59.1383 42.116V41.5043L59.1328 41.4988Z" fill="#171616"/>
<path d="M83.7383 41.4988C83.7383 41.2202 83.902 40.9962 84.1258 40.9962C85.0155 40.9416 86.7894 41.4387 86.6802 36.3859C86.6802 33.7748 86.7894 19.1626 86.3473 17.8297C86.0143 16.8301 85.403 16.8847 84.7371 16.8847C84.5133 16.8847 84.4042 16.7154 84.4042 16.4423L84.3496 15.6065C84.3496 15.3825 84.4588 15.164 84.6825 15.0493L90.9539 12.4383C91.1777 12.329 91.2869 12.4383 91.2869 12.7168V17.9936C92.1765 15.6611 94.6709 12.7715 97.6729 12.6622C103.055 12.4929 105.391 16.8847 105.391 22.7187V36.2165C105.391 38.773 105.221 40.7723 107.612 41.1055C107.836 41.1055 108 41.3294 108 41.5479V42.1051C108 42.3837 107.83 42.5476 107.612 42.5476L98.9501 42.493C98.7263 42.493 98.5626 42.3236 98.5626 42.1051L98.6171 41.4933C98.6171 41.2147 98.7263 41.0509 98.9501 41.0509C101.057 40.8815 100.784 37.8826 100.784 36.1619C100.784 34.9383 100.729 33.8294 100.729 32.7151V22.8279C100.729 19.1626 99.4522 14.8254 96.4557 15.164C93.35 15.4973 91.2923 21.5552 91.2923 24.0515V36.3313C91.2923 37.2763 91.2923 39.3848 91.5707 40.1659C91.9582 41.0563 92.9571 41.0017 93.4592 41.0017C93.683 41.0563 93.7922 41.2803 93.7922 41.5589V42.116C93.7922 42.3946 93.683 42.5585 93.4592 42.5585H84.1313C83.9075 42.5585 83.7437 42.3892 83.7437 42.116V41.5043L83.7383 41.4988Z" fill="#171616"/>
<path d="M11.2702 47.9169C6.99645 47.9715 4.94419 51.473 5.05335 54.3626C5.27714 61.1962 11.5485 61.6933 17.2632 66.697C19.5938 68.6963 24.1459 71.7498 23.5346 79.0859C23.1471 86.0288 18.2074 90.142 11.5431 89.8635C7.49314 89.7542 4.60579 87.4763 3.1048 87.4763C2.54807 87.4763 2.21513 87.7549 1.9968 88.3667C1.94222 88.6453 1.71844 88.8092 1.55469 88.8092H1.16717C0.943383 88.8092 0.83422 88.6399 0.83422 88.3667L0.779639 75.0874C0.779639 74.8088 0.948841 74.5848 1.16717 74.5848H1.27633C1.50011 74.5302 1.66386 74.6941 1.71844 74.9727C2.71727 83.6963 6.65804 87.2524 11.6522 87.7495C16.1497 88.1919 19.1462 84.8052 19.2554 81.4184C19.6429 73.4759 11.4284 71.0287 5.54459 66.5276C1.71298 63.7527 0.326614 60.4151 0.550397 56.5859C1.05255 49.1951 6.60346 45.863 12.3727 46.3054C16.0351 46.584 18.0328 48.8619 19.1462 48.8619C19.4792 48.8619 19.7576 48.5833 19.9213 47.9715C20.085 47.4143 20.418 47.469 20.7509 47.469C20.9747 47.469 21.0839 47.6383 21.0839 47.9114L21.193 58.8583C21.193 59.1369 21.0293 59.3608 20.8055 59.3608H20.6964C20.4726 59.4155 20.2542 59.2516 20.1942 58.973C18.6932 53.139 16.2534 47.8076 11.2592 47.9169H11.2702Z" fill="#171616"/>
<path d="M41.656 89.0283C39.1562 89.1976 38.2174 86.4718 37.9936 84.5272C36.438 86.9143 33.8836 89.4161 30.2212 89.1921C26.8372 89.0829 24.1681 85.86 24.6703 81.3043C25.6145 72.4714 34.4403 76.6939 37.6061 68.4729C37.8298 67.9157 37.8844 67.7518 37.8844 67.0854C37.8844 65.1954 38.3265 59.9732 33.7744 60.361C32.2735 60.4157 29.7245 61.8632 29.7245 64.6928C29.7245 66.1349 30.5596 66.6921 30.6688 68.1396C30.8325 69.7511 29.9483 71.1386 28.5565 71.6957C28.2235 71.8651 27.8906 71.9197 27.6122 71.9197C26.0567 71.9197 25.2816 70.0843 25.2816 67.7518C25.2816 60.9728 30.3904 58.5857 34.7733 58.695C40.2696 58.8042 42.6002 62.6389 42.6002 69.4179C42.6002 73.5858 42.431 77.8083 42.431 82.0308C42.431 82.8666 42.4856 84.9751 43.5445 84.7511C44.9309 84.8057 45.1001 82.4733 45.1001 81.0858C45.1001 80.8072 45.2092 80.6433 45.433 80.6433L45.8751 80.6979C46.0989 80.6979 46.2626 80.9219 46.2626 81.2005C46.0989 85.7562 44.7071 88.8098 41.656 89.0337V89.0283ZM33.7744 86.1386C35.6084 85.5814 36.771 83.97 37.7698 82.6371V79.1357C37.7698 76.0821 37.9936 73.5257 38.0482 70.4667C36.3289 75.2464 29.5007 76.1313 29.2224 81.4682C28.9986 85.1881 31.8314 86.7449 33.7744 86.1331V86.1386Z" fill="#171616"/>
<path d="M45.7559 87.9187C45.7559 87.6401 45.9196 87.4762 46.1434 87.4762C46.7001 87.5309 47.699 87.5309 48.2557 86.2526C48.8124 85.029 48.6432 82.3087 48.6432 80.8612C48.6432 71.1379 48.5886 61.4146 48.5886 51.6368C48.5886 51.0796 48.534 50.4678 48.3648 49.9707C48.0319 48.971 47.4206 48.9164 46.7547 48.971C46.5855 48.971 46.4218 48.8017 46.4218 48.5286V47.8075C46.4218 47.5289 46.5309 47.2504 46.7001 47.1411C47.5352 46.7533 49.6966 45.9721 50.0296 45.8629L52.6386 44.6393C53.0261 44.4699 53.2499 44.6939 53.2499 45.2511V70.6954C53.2499 73.1973 52.9715 84.5265 53.5828 86.0833C54.1395 87.4708 55.193 87.5254 55.8043 87.4708C56.0281 87.4708 56.1918 87.6948 56.1918 87.9733V88.5305C56.1918 88.8637 56.0281 89.0331 55.8043 89.0331H46.1434C45.9196 89.0331 45.7559 88.8637 45.7559 88.5305V87.9187Z" fill="#171616"/>
<path d="M65.9347 89.5305C59.3304 89.5305 55.7226 83.3633 55.608 75.1423C55.5534 65.9215 59.6033 59.1426 66.486 59.1426C70.7052 59.1426 76.589 63.0865 76.0323 69.9747C75.4756 77.1415 64.0408 76.5844 60.7659 76.3659C61.3226 80.3098 63.0965 85.8652 68.3691 85.7559C71.2564 85.7013 74.4767 82.981 75.4756 78.2013C75.5301 77.9227 75.6993 77.7588 75.9177 77.6987L76.4198 77.6441C76.6436 77.5895 76.7528 77.7533 76.7528 78.0319C75.9177 85.2534 71.5348 89.5305 65.9293 89.5305H65.9347ZM71.4311 69.2537C71.9332 65.8669 69.8755 60.978 66.6552 61.0326C62.6053 61.0872 61.0497 66.6972 60.6622 70.2533C60.553 71.4769 60.493 73.3069 60.6076 74.6998C63.3803 74.4212 70.656 74.9784 71.4311 69.2537Z" fill="#171616"/>
<path d="M77.5813 80.6371C78.0835 79.2496 78.804 78.8618 79.4699 78.8618C79.912 78.8618 80.3595 78.971 80.9108 79.7522C82.5755 81.7515 79.5244 87.0829 85.4083 88.0279C87.7389 88.4157 90.5171 87.3068 91.0138 83.5814C92.3456 74.4699 78.5802 75.6389 77.7997 67.9149C77.0792 61.0813 82.188 58.2463 86.0141 58.0824C89.9003 57.8585 96.2863 61.0267 94.507 66.3035C94.2286 67.0792 93.4536 67.5817 92.6731 67.5271C91.898 67.4725 91.1175 66.7514 91.0083 65.861C90.397 62.3049 89.7311 59.8632 86.4563 59.9178C84.344 59.9178 80.9599 60.8628 81.2383 64.9706C81.5712 69.9142 94.84 69.8596 95.2821 79.8013C95.6696 87.0228 90.7846 89.7431 85.7904 89.7431C83.3451 89.7431 80.9599 88.9073 79.0168 86.7988C77.5158 85.0781 76.9045 82.6309 77.5704 80.6316L77.5813 80.6371Z" fill="#171616"/>
<path d="M14.8785 135.558C5.66513 135.558 0.392578 125.725 0.392578 114.56C0.392578 102.226 5.05382 92.9502 15.2114 92.9502C20.2656 92.9502 27.0883 97.2273 27.4813 104.449C27.645 107.562 26.537 110.173 24.6485 110.173C23.5951 110.173 22.3179 109.398 22.0941 107.562C21.8703 105.508 23.0384 103.673 23.0384 102.286C23.0384 96.5063 18.3771 94.2284 14.7093 94.8948C9.2675 95.8945 6.0472 102.171 5.82887 113.063C5.55051 126.064 9.76964 132.843 15.8227 133.116C20.5986 133.34 25.3144 127.785 26.2587 120.782C26.3132 120.448 26.537 120.224 26.7553 120.224H27.6996C27.978 120.224 28.0871 120.448 28.0325 120.782C26.7553 130.117 21.9249 135.558 14.8785 135.558Z" fill="#171616"/>
<path d="M48.518 120.666C48.518 129.111 44.3535 136 37.3616 136C30.3697 136 26.2598 129.057 26.2598 120.666C26.2598 112.276 30.4789 105.442 37.3616 105.442C44.2443 105.442 48.518 112.276 48.518 120.666ZM43.5784 120.666C43.5238 114.887 42.2466 106.999 37.1924 106.999C32.1382 106.999 31.3631 115.002 31.3631 120.666C31.3631 126.331 32.4711 134.443 37.3561 134.443C42.2412 134.443 43.573 126.167 43.573 120.666H43.5784Z" fill="#171616"/>
<path d="M51.5691 128.249C53.2338 128.249 54.3473 129.751 54.3473 131.914C54.3473 134.078 53.2393 135.634 51.5691 135.634C49.8989 135.634 48.7363 134.078 48.7363 131.914C48.7363 129.751 49.8498 128.249 51.5691 128.249Z" fill="#171616"/>
</g>
<defs>
<clipPath id="clip0_99_3499">
<rect width="108" height="136" fill="white"/>
</clipPath>
</defs>
</svg>
